<svg xmlns="http://www.w3.org/2000/svg" viewBox="0 0 583 109" width="583" height="109">
	<style>
		tspan { white-space:pre }
		.shp0 { fill: none;stroke: white;stroke-width: 4 } 
		.shp1 { fill: white } 
	</style>
	<g id="Layer 1">
		<g id="decoration 3 1 ">
			<path id="&lt;Path&gt;" class="shp0" d="M299 28.91L291.93 35.98L284.86 28.91L291.93 21.83L299 28.91Z" />
			<path id="&lt;Path&gt;" class="shp0" d="M307.16 78.88L291.93 94.12L276.69 78.88L291.93 63.65L307.16 78.88Z" />
			<g id="&lt;Group&gt;">
				<path id="&lt;Path&gt;" class="shp1" d="M581.72 57.66C576.69 57.87 571.65 57.97 566.61 58.13C561.57 58.25 556.53 58.35 551.49 58.42L536.38 58.59L521.27 58.65L520.44 58.66L519.85 58.07L513.96 52.18L516.79 52.18L500.23 68.76L498.81 70.18L497.39 68.76L486.85 58.23L489.7 58.23L484.76 63.18L484.76 60.32L489.56 65.12L486.69 65.12L496.26 55.54L496.26 58.42L486.36 48.52L489.24 48.52L479.67 58.09L479.07 58.69L478.23 58.69L370.81 58.74L372.28 58.13L356.77 73.66L355.29 75.14L353.8 73.66L308.62 28.51L286.03 5.93L285.42 5.44L285.33 5.37L285.28 5.36L285.19 5.33C285.14 5.31 285.09 5.29 285.04 5.25C284.9 5.2 284.68 5.16 284.52 5.09C284.33 5.06 284.14 5.06 283.95 5.03C283.17 5.02 282.44 5.33 281.88 5.89L276.23 11.54L264.95 22.84L264.95 19.8L316.15 70.96L313.07 70.96L327.57 56.46L327.57 59.54L313.27 45.27L316.38 45.27L307.89 53.76L307.89 50.65L335.49 78.23L332.36 78.23L361.33 49.24L361.33 52.39L340.2 31.29L343.38 31.29L336.39 38.28L336.4 35.11L350.35 49.23L351.92 50.83L350.33 52.41L322.11 80.66L307.99 94.79L300.94 101.85L297.41 105.38L296.97 105.82L296.75 106.04L296.69 106.1L296.46 106.31L296.34 106.4C295.98 106.68 295.83 106.89 295.1 107.29C294.79 107.46 294.47 107.64 294.17 107.76L293.3 108.03C292.72 108.22 292.1 108.21 291.5 108.27C290.3 108.21 289.07 107.99 288.02 107.36C287.46 107.1 287.01 106.69 286.54 106.31C286.27 106.08 286.2 105.98 286.03 105.82L285.59 105.38L282.06 101.85L275.01 94.79L260.89 80.66L232.67 52.41L231.08 50.83L232.65 49.23L246.6 35.11L246.61 38.28L239.62 31.29L242.8 31.29L221.67 52.39L221.67 49.24L250.64 78.23L247.51 78.23L275.11 50.65L275.11 53.76L266.62 45.27L269.73 45.27L255.43 59.54L255.43 56.46L269.93 70.96L266.85 70.96L318.05 19.8L318.05 22.84L306.77 11.54L301.12 5.89C300 4.73 298.11 4.74 296.97 5.93L274.38 28.51L229.2 73.66L227.71 75.14L226.23 73.66L210.72 58.13L212.19 58.74L104.77 58.69L103.93 58.69L103.33 58.09L93.76 48.52L96.64 48.52L86.74 58.42L86.74 55.54L96.31 65.12L93.44 65.12L98.24 60.32L98.24 63.18L93.3 58.23L96.15 58.23L85.61 68.76L84.19 70.18L82.77 68.76L66.21 52.18L69.04 52.18L63.15 58.07L62.56 58.66L61.73 58.65L46.62 58.59L31.51 58.42C26.47 58.35 21.43 58.25 16.39 58.13C11.35 57.97 6.31 57.87 1.28 57.66C0.72 57.63 0.3 57.16 0.32 56.61C0.34 56.09 0.77 55.68 1.28 55.66C6.31 55.44 11.35 55.34 16.39 55.18C21.43 55.06 26.47 54.96 31.51 54.89L46.62 54.72L61.73 54.66L60.32 55.24L66.21 49.35L67.62 47.93L69.04 49.35L85.61 65.91L82.77 65.91L93.3 55.37L94.72 53.95L96.15 55.37L101.1 60.32L102.53 61.75L101.1 63.18L96.31 67.98L94.88 69.41L93.44 67.98L83.87 58.42L82.43 56.98L83.87 55.54L93.76 45.64L95.2 44.2L96.64 45.64L106.22 55.21L104.77 54.61L212.19 54.57L213.06 54.57L213.67 55.18L229.2 70.69L226.23 70.69L271.38 25.51L293.96 2.92C295.22 1.62 297.14 0.75 299.03 0.76C299.5 0.78 299.97 0.83 300.44 0.89C300.9 1.01 301.35 1.13 301.81 1.3C302.29 1.53 302.82 1.83 303.22 2.09L303.6 2.41L303.8 2.56L303.89 2.64L303.94 2.68L304.15 2.87L309.79 8.51L321.09 19.8L322.61 21.32L321.09 22.84L269.93 74.04L268.39 75.58L266.85 74.04L252.35 59.54L250.8 58L252.35 56.46L266.62 42.16L268.17 40.61L269.73 42.16L278.22 50.65L279.77 52.2L278.22 53.76L250.64 81.36L249.07 82.92L247.51 81.36L218.52 52.39L216.94 50.82L218.52 49.24L239.62 28.12L241.21 26.53L242.8 28.12L249.79 35.1L251.37 36.68L249.8 38.27L235.86 52.4L235.85 49.22L264.1 77.45L278.23 91.56L285.29 98.62L288.82 102.15L289.26 102.59C289.4 102.72 289.59 102.93 289.66 102.96C289.85 103.09 289.99 103.28 290.21 103.35C290.59 103.61 291.06 103.64 291.5 103.7C291.72 103.63 291.96 103.7 292.17 103.6C292.27 103.56 292.38 103.53 292.49 103.51C292.58 103.47 292.61 103.43 292.67 103.42C292.72 103.49 293.16 103.1 293.45 102.86L293.57 102.76C293.74 102.62 293.39 102.94 293.43 102.89L293.46 102.86L293.51 102.81L293.74 102.59L294.18 102.15L297.71 98.62L304.77 91.56L318.9 77.45L347.15 49.22L347.14 52.4L333.2 38.27L331.63 36.68L333.21 35.1L340.2 28.12L341.79 26.53L343.38 28.12L364.48 49.24L366.06 50.82L364.48 52.39L335.49 81.36L333.93 82.92L332.36 81.36L304.78 53.76L303.23 52.2L304.78 50.65L313.27 42.16L314.83 40.61L316.38 42.16L330.65 56.46L332.2 58L330.65 59.54L316.15 74.04L314.61 75.58L313.07 74.04L261.91 22.84L260.39 21.32L261.91 19.8L273.21 8.51L278.85 2.87C280.16 1.54 282.08 0.72 283.97 0.76C284.44 0.8 284.92 0.82 285.39 0.91C285.85 1.05 286.29 1.15 286.76 1.35C287.01 1.47 287.25 1.6 287.49 1.74L287.84 1.95L288.02 2.05L288.12 2.13L288.51 2.45L288.7 2.61L288.8 2.69L289 2.87L289.04 2.92L311.62 25.51L356.77 70.69L353.8 70.69L369.33 55.18L369.94 54.57L370.81 54.57L478.23 54.61L476.78 55.21L486.36 45.64L487.8 44.2L489.24 45.64L499.13 55.54L500.57 56.98L499.13 58.42L489.56 67.98L488.12 69.41L486.69 67.98L481.9 63.18L480.47 61.75L481.9 60.32L486.85 55.37L488.28 53.95L489.7 55.37L500.23 65.91L497.39 65.91L513.96 49.35L515.38 47.93L516.79 49.35L522.68 55.24L521.27 54.66L536.38 54.72L551.49 54.89C556.53 54.96 561.57 55.06 566.61 55.18C571.65 55.34 576.69 55.44 581.72 55.66C582.28 55.68 582.7 56.15 582.68 56.7C582.66 57.22 582.23 57.63 581.72 57.66Z" />
			</g>
		</g>
	</g>
</svg>